<?xml version="1.0" standalone="no"?>
<!DOCTYPE svg PUBLIC "-//W3C//DTD SVG 20010904//EN"
 "http://www.w3.org/TR/2001/REC-SVG-20010904/DTD/svg10.dtd">
<svg version="1.0" xmlns="http://www.w3.org/2000/svg"
 width="200.000000pt" height="200.000000pt" viewBox="0 0 200.000000 200.000000"
 preserveAspectRatio="xMidYMid meet">

<g transform="translate(0.000000,200.000000) scale(0.100000,-0.100000)"
fill="#000000" stroke="none">
<path d="M967 1932 c-13 -14 -17 -38 -17 -100 l0 -81 -70 24 c-87 30 -120 23
-120 -25 0 -36 20 -50 118 -81 l72 -23 0 -92 0 -92 -77 24 c-152 48 -162 50
-178 34 -8 -8 -24 -62 -36 -120 -12 -58 -25 -109 -29 -113 -6 -7 -144 66 -154
82 -3 4 4 46 15 94 20 93 16 120 -19 129 -43 12 -59 -7 -77 -90 l-17 -80 -68
39 c-73 42 -100 47 -124 23 -33 -32 -14 -62 69 -109 36 -20 65 -38 65 -40 0
-2 -25 -27 -55 -56 -62 -58 -70 -89 -30 -115 29 -19 30 -18 117 59 l66 58 81
-46 81 -47 -58 -51 c-101 -91 -122 -115 -122 -135 0 -13 34 -52 90 -104 l90
-84 -72 -39 c-40 -22 -78 -41 -85 -43 -7 -2 -41 24 -77 57 -66 61 -99 74 -124
49 -28 -28 -14 -65 43 -113 30 -26 55 -50 55 -54 0 -3 -26 -21 -58 -38 -32
-18 -67 -42 -77 -53 -18 -20 -18 -24 -4 -48 22 -40 50 -38 126 7 76 45 74 46
88 -39 10 -63 30 -92 62 -88 50 6 52 36 17 198 -5 23 3 30 75 71 l80 47 10
-47 c6 -25 18 -79 27 -119 22 -99 30 -103 159 -61 55 17 106 34 112 36 10 4
13 -18 13 -89 l0 -94 -92 -30 c-97 -30 -106 -39 -94 -89 9 -34 39 -36 117 -10
l69 24 0 -83 c0 -71 3 -86 20 -101 16 -15 26 -17 48 -9 26 9 27 11 30 101 l3
91 75 -24 c81 -26 107 -22 119 16 12 37 -12 57 -102 87 l-88 30 -3 92 c-3 92
-3 93 20 86 13 -4 65 -20 115 -37 97 -30 125 -29 137 9 5 16 46 211 46 218 0
2 36 -17 81 -42 73 -42 80 -49 76 -72 -2 -14 -10 -58 -18 -98 -15 -82 -6 -103
42 -103 34 0 43 15 59 98 7 34 17 62 22 62 5 0 38 -16 72 -35 73 -40 86 -42
111 -15 30 33 13 61 -62 104 -37 21 -70 40 -72 42 -2 2 22 26 53 55 44 40 56
57 56 80 0 22 -7 32 -25 41 -29 13 -44 4 -126 -70 l-55 -51 -77 46 c-42 25
-77 49 -77 53 0 5 12 18 28 30 77 61 142 131 142 154 0 17 -24 45 -85 101 -47
42 -85 80 -85 83 0 4 35 26 76 49 l76 43 74 -65 c79 -69 84 -71 115 -55 38 21
24 63 -38 121 -32 29 -53 54 -47 56 32 11 140 91 142 106 5 23 -25 57 -49 57
-10 0 -48 -18 -86 -40 l-68 -39 -13 62 c-20 94 -27 107 -61 107 -48 0 -57 -21
-42 -103 8 -40 16 -83 18 -97 4 -22 -4 -30 -76 -72 -45 -26 -81 -45 -81 -42 0
7 -40 196 -46 217 -12 38 -38 39 -152 2 -60 -19 -112 -35 -116 -35 -4 0 -5 41
-4 92 l3 92 82 26 c45 14 90 32 99 42 23 22 11 66 -20 74 -19 4 -98 -13 -153
-33 -10 -4 -13 17 -13 86 0 79 -2 92 -19 101 -28 15 -46 12 -64 -8z m-107
-551 l85 -27 3 -132 3 -133 -23 12 c-13 6 -65 36 -116 66 -69 41 -92 59 -88
71 2 9 12 52 21 95 9 42 20 77 24 76 3 0 44 -13 91 -28z m390 -28 c7 -32 15
-75 20 -95 l8 -37 -107 -62 c-58 -34 -110 -64 -114 -66 -4 -3 -6 55 -5 128 l3
133 85 28 c47 15 88 27 92 28 4 0 12 -26 18 -57z m-468 -285 c59 -35 108 -65
108 -68 0 -3 -50 -34 -110 -68 l-110 -64 -70 63 c-38 34 -70 65 -70 68 0 6
132 130 139 131 2 0 53 -28 113 -62z m619 1 c38 -34 69 -65 69 -69 0 -4 -32
-35 -70 -69 l-70 -63 -110 64 c-60 34 -110 65 -110 68 0 4 210 129 218 130 2
0 35 -28 73 -61z m-458 -420 c-9 -8 -175 -60 -179 -56 -9 8 -42 183 -36 189 4
4 54 34 112 68 l105 60 3 -127 c1 -69 -1 -130 -5 -134z m253 180 c63 -38 84
-55 80 -67 -2 -9 -12 -52 -21 -94 -9 -43 -20 -78 -24 -77 -3 0 -44 13 -91 28
l-85 27 -3 132 -3 133 32 -16 c17 -9 69 -39 115 -66z"/>
</g>
</svg>
