<?xml version="1.0" standalone="no"?>
<!DOCTYPE svg PUBLIC "-//W3C//DTD SVG 20010904//EN"
 "http://www.w3.org/TR/2001/REC-SVG-20010904/DTD/svg10.dtd">
<svg version="1.0" xmlns="http://www.w3.org/2000/svg"
 width="2000.000000pt" height="2000.000000pt" viewBox="0 0 2000.000000 2000.000000"
 preserveAspectRatio="xMidYMid meet">

<g transform="translate(0.000000,2000.000000) scale(0.100000,-0.100000)"
fill="#000000" stroke="none">
<path d="M7690 16924 c-25 -2 -103 -9 -175 -14 -491 -41 -1016 -166 -1474
-352 -1130 -458 -2171 -1429 -2731 -2548 -399 -798 -580 -1739 -514 -2676 l7
-92 -132 -66 c-812 -407 -1450 -1015 -1915 -1825 -319 -555 -505 -1133 -578
-1796 -20 -187 -17 -821 5 -1005 131 -1074 551 -1935 1322 -2705 381 -381 770
-667 1201 -883 491 -246 965 -382 1564 -449 145 -16 532 -18 5915 -21 5870 -3
5985 -3 6259 33 529 70 1003 230 1429 482 291 172 517 347 776 598 475 463
796 959 994 1540 236 691 270 1514 91 2243 -170 696 -555 1354 -1101 1882
-373 362 -779 625 -1254 813 -154 62 -447 156 -531 172 -21 4 -38 11 -38 16 0
5 15 32 34 61 196 309 330 712 367 1102 14 156 7 498 -15 641 -55 370 -195
742 -388 1030 -309 462 -762 837 -1233 1021 -328 128 -599 177 -975 177 -242
0 -379 -13 -586 -58 -353 -76 -738 -263 -1032 -500 -46 -37 -87 -64 -91 -59
-4 5 -22 45 -41 89 -48 114 -202 421 -273 545 -207 362 -471 710 -767 1014
-589 604 -1333 1073 -2118 1335 -349 116 -704 193 -1102 237 -136 15 -779 28
-900 18z m562 -6457 c229 -50 425 -130 573 -235 116 -82 145 -144 145 -313 0
-198 -58 -265 -167 -191 -198 134 -253 168 -329 203 -198 93 -355 129 -565
129 -489 0 -837 -265 -1014 -771 -74 -211 -103 -385 -112 -664 -9 -310 20
-552 98 -790 89 -277 234 -478 437 -609 191 -124 450 -180 717 -156 260 23
463 103 740 290 61 41 90 54 127 58 48 5 48 4 64 -33 13 -31 15 -69 12 -190
-3 -146 -4 -153 -30 -193 -74 -112 -393 -271 -673 -337 -182 -43 -462 -57
-660 -35 -621 72 -1060 435 -1261 1045 -82 250 -117 500 -117 835 0 442 65
768 219 1089 94 196 176 314 318 457 215 215 448 343 746 408 133 30 201 35
410 31 174 -3 223 -7 322 -28z m1817 -8 c34 -7 57 -19 71 -36 20 -25 20 -40
20 -794 l0 -769 860 0 860 0 0 773 0 774 23 21 c34 32 113 44 260 40 107 -2
140 -7 172 -23 l40 -20 0 -1865 0 -1865 -40 -20 c-32 -15 -67 -20 -171 -23
-158 -5 -235 8 -264 45 -20 25 -20 38 -20 874 l0 849 -860 0 -860 0 0 -850 0
-851 -23 -23 c-32 -31 -105 -46 -232 -46 -127 0 -200 15 -232 46 l-23 23 0
1839 c0 1834 0 1839 20 1865 13 16 37 30 63 35 59 14 276 14 336 1z m4135
-3593 l36 -15 0 -715 0 -716 131 0 c72 0 139 -4 149 -10 10 -5 23 -24 29 -41
23 -67 7 -170 -29 -189 -10 -6 -77 -10 -149 -10 l-131 0 0 -245 0 -245 -26
-10 c-14 -6 -69 -10 -122 -10 -151 0 -142 -18 -142 270 l0 239 -470 3 c-435 3
-471 4 -487 21 -15 15 -18 35 -18 125 0 95 3 112 25 153 95 177 808 1379 824
1389 51 32 309 36 380 6z"/>
<path d="M13595 6025 l-351 -600 350 -3 c192 -1 351 -1 353 1 2 2 2 273 1 603
l-3 598 -350 -599z"/>
</g>
</svg>
