<?xml version="1.0" standalone="no"?>
<!DOCTYPE svg PUBLIC "-//W3C//DTD SVG 20010904//EN"
 "http://www.w3.org/TR/2001/REC-SVG-20010904/DTD/svg10.dtd">
<svg version="1.0" xmlns="http://www.w3.org/2000/svg"
 width="512.000000pt" height="512.000000pt" viewBox="0 0 512.000000 512.000000"
 preserveAspectRatio="xMidYMid meet">

<g transform="translate(0.000000,512.000000) scale(0.100000,-0.100000)"
fill="#000000" stroke="none">
<path d="M3065 4211 c-172 -38 -299 -90 -432 -177 -100 -67 -227 -184 -290
-270 l-46 -63 -41 25 c-202 123 -412 174 -638 153 -229 -22 -428 -114 -601
-278 -208 -198 -320 -481 -304 -769 3 -59 8 -114 12 -123 5 -12 -14 -22 -94
-48 -172 -57 -315 -155 -426 -294 -294 -368 -265 -887 68 -1216 111 -109 227
-179 382 -228 l90 -28 1815 0 1815 0 90 28 c155 49 271 119 382 228 279 276
350 692 178 1046 -107 220 -297 387 -527 462 -38 13 -68 24 -68 25 0 2 9 38
21 82 26 102 37 331 20 441 -81 517 -470 920 -975 1008 -119 20 -327 18 -431
-4z m-1441 -1407 c193 -47 328 -220 314 -404 l-3 -45 -136 -3 -135 -3 -11 70
c-17 108 -60 154 -157 167 -103 14 -178 -33 -217 -134 -27 -72 -38 -306 -20
-421 27 -172 124 -254 264 -222 85 19 118 62 131 174 l8 58 136 -3 137 -3 3
-53 c6 -98 -38 -209 -111 -285 -92 -94 -214 -133 -395 -125 -100 4 -115 7
-186 41 -132 62 -217 164 -262 312 -26 88 -26 452 0 540 46 151 122 246 251
310 107 54 243 64 389 29z m1156 -4 c153 -44 273 -165 327 -329 11 -32 17
-103 20 -233 8 -288 -24 -403 -147 -527 -99 -100 -206 -141 -370 -141 -158 0
-266 43 -365 144 -115 118 -145 216 -145 482 0 148 4 195 20 258 30 120 104
224 206 294 112 76 296 97 454 52z m1105 -2 c152 -50 245 -180 245 -345 0
-123 -57 -223 -245 -433 -61 -67 -125 -139 -144 -161 l-34 -39 227 0 226 0 0
-120 0 -120 -425 0 -425 0 0 98 0 97 186 200 c231 248 264 286 302 355 72 129
40 245 -71 257 -85 10 -147 -54 -147 -152 l0 -45 -140 0 c-164 0 -160 -3 -142
102 33 191 155 300 372 332 47 7 155 -6 215 -26z"/>
<path d="M2550 2579 c-53 -16 -97 -55 -128 -112 -27 -52 -27 -52 -27 -267 0
-211 0 -216 26 -271 32 -69 79 -106 150 -121 102 -20 185 21 234 117 l30 60 0
210 c0 178 -3 216 -18 247 -22 47 -72 105 -107 123 -37 19 -118 26 -160 14z"/>
</g>
</svg>
