<?xml version="1.0" standalone="no"?>
<!DOCTYPE svg PUBLIC "-//W3C//DTD SVG 20010904//EN"
 "http://www.w3.org/TR/2001/REC-SVG-20010904/DTD/svg10.dtd">
<svg version="1.0" xmlns="http://www.w3.org/2000/svg"
 width="260.000000pt" height="280.000000pt" viewBox="0 0 260.000000 280.000000"
 preserveAspectRatio="xMidYMid meet">

<g transform="translate(0.000000,280.000000) scale(0.100000,-0.100000)"
fill="#000000" stroke="none">
<path d="M1062 2109 c-145 -28 -279 -150 -326 -295 l-17 -51 -56 10 c-211 36
-442 -124 -493 -342 -8 -33 -11 -87 -7 -138 4 -71 11 -97 41 -158 64 -129 186
-221 327 -245 44 -7 316 -10 874 -8 l810 3 53 24 c65 29 134 104 156 168 19
54 21 140 5 193 -16 54 -77 130 -130 162 -24 16 -73 33 -107 39 -53 10 -62 14
-57 29 10 30 -13 141 -40 197 -90 182 -322 263 -504 175 l-38 -19 -23 43 c-31
60 -129 150 -193 179 -90 42 -181 53 -275 34z m387 -538 c59 -42 78 -150 40
-227 -45 -93 -187 -112 -253 -33 -71 84 -48 224 44 272 45 23 128 17 169 -12z
m-443 -81 c32 -55 62 -100 67 -100 4 0 7 45 7 100 l0 100 30 0 30 0 0 -161 0
-160 -37 3 c-35 3 -40 8 -97 102 l-61 99 -3 -101 -3 -102 -29 0 -30 0 0 160 0
160 33 0 c31 0 36 -5 93 -100z m648 -146 c24 -24 19 -48 -16 -83 l-32 -31 32
0 c25 0 32 -4 32 -20 0 -18 -7 -20 -65 -20 -81 0 -85 14 -19 75 27 24 44 47
40 54 -10 16 -34 14 -44 -4 -8 -16 -42 -11 -42 5 0 19 34 40 65 40 18 0 41 -7
49 -16z"/>
<path d="M1293 1518 c-28 -30 -38 -88 -23 -132 24 -72 98 -90 145 -34 24 29
27 38 23 92 -4 46 -9 63 -27 77 -33 27 -92 25 -118 -3z"/>
</g>
</svg>
